<?xml version="1.0" encoding="UTF-8"?>
<svg width="586px" height="491px" viewBox="0 0 586 491" version="1.1" xmlns="http://www.w3.org/2000/svg" xmlns:xlink="http://www.w3.org/1999/xlink">
    <!-- Generator: Sketch 64 (93537) - https://sketch.com -->
    <title>页面飞走了@3x</title>
    <desc>Created with Sketch.</desc>
    <defs>
        <linearGradient x1="50%" y1="0%" x2="50%" y2="100%" id="linearGradient-1">
            <stop stop-color="#F0F1FF" offset="0%"></stop>
            <stop stop-color="#F3F9FF" offset="100%"></stop>
        </linearGradient>
        <linearGradient x1="50%" y1="0%" x2="50%" y2="100%" id="linearGradient-2">
            <stop stop-color="#F0F1FF" offset="0%"></stop>
            <stop stop-color="#F3F9FF" offset="100%"></stop>
        </linearGradient>
    </defs>
    <g id="web组件设计" stroke="none" stroke-width="1" fill="none" fill-rule="evenodd">
        <g id="插画组件" transform="translate(-1957.000000, -7058.000000)">
            <g id="页面飞走了" transform="translate(1930.000000, 6983.000000)">
                <g id="柱状图" transform="translate(100.000000, 318.000000)" fill-rule="nonzero">
                    <path d="M130.419735,109.295943 L24.1565605,125.354951 C19.2407365,126.097674 14.6534742,122.714461 13.9108346,117.798089 L0.102239021,26.4081264 C-0.640400573,21.4917545 2.7424353,16.9039809 7.65825933,16.1612585 L113.921434,0.102250417 C118.837258,-0.640471955 123.42452,2.74274098 124.167159,7.65911295 L137.975755,99.0490752 C138.718395,103.965447 135.335559,108.553221 130.419735,109.295943 Z" id="Path" fill="#40A9FF"></path>
                    <polygon id="Rectangle" fill="#BAE7FF" transform="translate(59.914707, 43.224087) rotate(-8.591959) translate(-59.914707, -43.224087) " points="55.5191665 37.3227722 64.3104422 37.3226274 64.3102478 49.125402 55.5189722 49.1255468"></polygon>
                    <polygon id="Rectangle" fill="#096DD9" transform="translate(63.881588, 69.482545) rotate(-8.591959) translate(-63.881588, -69.482545) " points="59.4862901 48.8277622 68.2775657 48.8276174 68.2768856 90.1373285 59.48561 90.1374733"></polygon>
                    <polygon id="Rectangle" fill="#BAE7FF" transform="translate(47.757521, 51.029553) rotate(-8.591959) translate(-47.757521, -51.029553) " points="43.3620771 39.2268505 52.1533527 39.2267058 52.1529641 62.832255 43.3616885 62.8323997"></polygon>
                    <polygon id="Rectangle" fill="#096DD9" transform="translate(51.724401, 77.288011) rotate(-8.591959) translate(-51.724401, -77.288011) " points="47.3290064 62.5346151 56.120282 62.5344704 56.1197962 92.0414069 47.3285206 92.0415517"></polygon>
                    <polygon id="Rectangle" fill="#BAE7FF" transform="translate(35.601224, 58.834794) rotate(-8.591959) translate(-35.601224, -58.834794) " points="31.2058778 41.1307044 39.9971534 41.1305596 39.9965704 76.5388834 31.2052948 76.5390282"></polygon>
                    <polygon id="Rectangle" fill="#096DD9" transform="translate(39.568015, 85.093252) rotate(-8.591959) translate(-39.568015, -85.093252) " points="35.1725227 76.2412436 43.9637983 76.2410988 43.9635068 93.9452607 35.1722312 93.9454055"></polygon>
                    <polygon id="Rectangle" fill="#BAE7FF" transform="translate(101.156796, 57.881023) rotate(-8.591959) translate(-101.156796, -57.881023) " points="96.7615952 31.3248526 105.552871 31.3247079 105.551996 84.4371936 96.7607208 84.4373384"></polygon>
                    <polygon id="Rectangle" fill="#BAE7FF" transform="translate(84.507972, 35.950969) rotate(-8.591959) translate(-84.507972, -35.950969) " points="80.1123735 33.5661783 88.9036491 33.5660336 88.9035706 38.3357589 80.112295 38.3359037"></polygon>
                    <polygon id="Rectangle" fill="#096DD9" transform="translate(88.474987, 62.210317) rotate(-8.591959) translate(-88.474987, -62.210317) " points="84.0797473 38.0390093 92.871023 38.0388645 92.8702271 86.3816249 84.0789514 86.3817696"></polygon>
                    <polygon id="Rectangle" fill="#BAE7FF" transform="translate(71.828824, 40.296423) rotate(-8.591959) translate(-71.828824, -40.296423) " points="67.433265 35.5096641 76.2245406 35.5095194 76.224383 45.0831811 67.4331073 45.0833258"></polygon>
                    <polygon id="Rectangle" fill="#096DD9" transform="translate(75.795682, 66.555326) rotate(-8.591959) translate(-75.795682, -66.555326) " points="71.4004025 44.7855362 80.1916781 44.7853914 80.1909613 88.3251157 71.3996856 88.3252605"></polygon>
                </g>
                <rect id="矩形备份-4" fill-opacity="0" fill="#EFEFEF" x="0" y="0" width="640" height="640"></rect>
                <g id="编组-6" transform="translate(27.000000, 75.000000)" fill-rule="nonzero">
                    <g id="plant_6_" transform="translate(288.000000, 0.000000)">
                        <path d="M79,144 C79,144 155.069135,13.5383441 283,106.306963 L248.144645,98.9204307 L258.528025,108.360971 L224.032533,120.208554 L198.193829,102.858104 C198.193829,102.858104 212.465491,119.487676 219.202588,124.716511 C211.916291,128.882544 174.763828,132.973281 174.763828,132.973281 L170.425403,113.361446 C170.425403,113.361446 169.23171,130.195925 172.167043,137.587394 L136.935524,140.561016 L131.911227,127.753086 L119.705959,138.394679 L79,144 Z" id="Path" fill="#71E5CB"></path>
                        <path d="M81,149 C81,149 114.553274,1.27460531 265,52.9767541 L229.035878,62.9954043 L228.55949,72.0648669 L202.218649,91.2846733 L182.750862,74.5123794 C182.750862,74.5123794 185.620501,90.1478845 193.646186,93.2016843 C187.92325,99.3415863 169.383099,110.334272 169.383099,110.334272 L159.322396,92.7494536 C159.322396,92.7494536 156.911548,104.492544 161.949442,110.739292 L135.443939,128.715464 L126.77469,117.873107 L131.334939,131.431333 L81,149 Z" id="Path" fill="#39B499"></path>
                        <path d="M161,109 C161,109 126.45716,-16.1602128 0,33.7602307 L31.1206859,40.9772236 L31.8880245,48.7204036 L55.1538841,64.1755914 L71.1167963,49.0882358 C71.1167963,49.0882358 69.2885395,62.5783267 62.5538512,65.4935529 C67.6870823,70.5334778 83.961214,79.2405029 83.961214,79.2405029 L91.8563602,63.8114998 C91.8563602,63.8114998 94.3839159,73.7704014 90.3292429,79.306588 L113.685822,93.6919451 L120.65991,84.0859131 L117.304536,95.8615318 L161,109 Z" id="Path" fill="#8AE6B9"></path>
                        <path d="M81,149 C81,149 111.888509,-37.3413112 233,6.75003181 L205.359397,29.7227932 L182.450125,24.2367794 L205.490473,35.4973466 L190.7142,54.2122688 L159.291305,49.5140932 L171.021326,57.535491 L157.943998,82.832877 L141.557006,73.477925 C141.557006,73.477925 142.390093,85.5489118 148.942621,90.2947591 L128.163331,114.820616 L116.861827,106.563368 L124.922986,118.552811 L81,149 Z" id="Path" fill="#55CEB3"></path>
                    </g>
                    <g id="plant_10_" transform="translate(42.000000, 281.500000) scale(-1, 1) translate(-42.000000, -281.500000) translate(0.000000, 163.000000)">
                        <path d="M45.5162406,161.915533 C71.584192,160.769141 82.3984524,147.468761 83.8973878,117.926815 C85.3963232,88.3848686 70.0084144,75.0733091 68.0658433,52.5072786 C66.1232723,29.9412482 60.7187035,1.33633491 55.1348362,0.0771333391 C49.5509689,-1.18206823 46.6319895,13.2667363 40.0440506,22.1726147 C30.2000512,35.4790927 15.7639613,28.9442532 20.6808382,64.5057724 C24.8979387,95.0081266 3.59727801,91.9236417 0.313554226,122.417865 C-2.88410629,152.11429 18.8110111,163.090381 45.5162406,161.915533 Z" id="Path" fill="#F3F9FF"></path>
                        <path d="M28.009534,237 C27.9069291,221.82829 28.6333713,206.818512 30.1467927,191.809752 C31.6284065,176.819324 33.9811353,161.887966 37.6759354,147.253992 C38.3428668,144.847417 39.0323713,142.469358 39.7167456,140.085189 C33.2988132,125.751655 30.8260367,109.927124 32.2748169,94.5812607 C31.745376,108.918868 34.800948,123.271752 40.8587374,136.070496 C43.9368824,125.357518 46.9165268,114.744349 48.6433662,103.703434 C51.185914,88.9737265 52.6182775,73.986354 52.1278264,59 C53.0646085,73.9710774 52.0796021,89.0378883 49.9669686,103.910177 C49.6694145,106.285181 49.2251356,108.643889 48.8177944,111.006671 C52.5813397,108.581764 55.9672993,105.15573 58.7160828,101.432311 C61.8598949,97.0102416 64.302916,92.0494173 66,86.8217614 C64.7328303,92.1665379 62.6920201,97.3656774 59.8355015,102.16457 C56.8507269,106.896245 53.2852089,111.276558 48.2503897,114.50807 C46.0885058,125.773042 42.973423,136.90358 40.2820982,147.872186 C33.9657446,177.006717 32.4861829,207.155615 33.3655063,236.811588 L28.009534,237 Z" id="Path" fill="#D0E7FE"></path>
                    </g>
                    <g id="窗口" transform="translate(109.000000, 54.000000)">
                        <g id="Group">
                            <path d="M381.138183,30.7108067 L381.138183,361.730415 C381.138183,364.568754 378.832798,366.870471 375.989935,366.870471 L5.89268464,366.870471 C3.0498221,366.870471 0.744436658,364.568754 0.744436658,361.730415 L0.744436658,30.7108067 L381.138183,30.7108067 Z" id="Path" fill="url(#linearGradient-1)"></path>
                            <path d="M381.138183,9.61190476 L381.138183,30.7118347 L0.744436658,30.7118347 L0.744436658,9.61190476 C0.744436658,4.72062745 4.71579515,0.755588035 9.61486792,0.755588035 L372.266722,0.755588035 C377.166825,0.754560224 381.138183,4.72062745 381.138183,9.61190476 Z" id="Path" fill="#143E81"></path>
                            <ellipse id="Oval" fill="#F7A959" cx="28.0013208" cy="16.2682773" rx="5.6115903" ry="5.60266106"></ellipse>
                            <ellipse id="Oval" fill="#55CEB3" cx="47.9796119" cy="16.2682773" rx="5.6115903" ry="5.60266106"></ellipse>
                            <rect id="Rectangle" fill="#DCEEFD" x="0.744436658" y="30.7108067" width="379.659606" height="8.44922409"></rect>
                        </g>
                        <g id="Group" transform="translate(27.000000, 63.000000)">
                            <g transform="translate(176.026234, 148.800623)" id="Path">
                                <path d="M143.667658,16.2872266 L143.667658,121.619637 C143.667658,127.293592 139.052822,131.879954 133.366686,131.879954 L10.3833799,131.879954 C4.69724328,131.879954 0.0824077768,127.293592 0.0824077768,121.619637 L0.0824077768,16.2872266 C0.0824077768,10.6132715 4.69724328,6.02691 10.3833799,6.02691 L133.366686,6.02691 C139.052822,6.02691 143.667658,10.6132715 143.667658,16.2872266 Z" fill="#A9C2E8"></path>
                                <path d="M143.667658,11.1570683 L143.667658,116.489479 C143.667658,122.163434 139.052822,126.749796 133.366686,126.749796 L10.3833799,126.749796 C4.69724328,126.749796 0.0824077768,122.163434 0.0824077768,116.489479 L0.0824077768,11.1570683 C0.0824077768,5.48311321 4.69724328,0.896751675 10.3833799,0.896751675 L133.366686,0.896751675 C139.052822,0.896751675 143.667658,5.48311321 143.667658,11.1570683 Z" fill="url(#linearGradient-2)"></path>
                            </g>
                            <path d="M133.155516,128.931139 L122.854544,128.931139 L122.854544,125.853044 L133.155516,125.853044 L133.155516,128.931139 Z M112.553572,128.931139 L102.2526,128.931139 L102.2526,125.853044 L112.553572,125.853044 L112.553572,128.931139 Z M91.9516275,128.931139 L81.6506554,128.931139 L81.6506554,125.853044 L91.9516275,125.853044 L91.9516275,128.931139 Z M71.3496833,128.931139 L61.0487112,128.931139 L61.0487112,125.853044 L71.3496833,125.853044 L71.3496833,128.931139 Z M50.7477391,128.931139 L40.446767,128.931139 L40.446767,125.853044 L50.7477391,125.853044 L50.7477391,128.931139 Z M30.1457949,128.931139 L19.8448228,128.931139 L19.8448228,125.853044 L30.1457949,125.853044 L30.1457949,128.931139 Z M9.22246032,128.640772 C5.27100742,127.751203 2.08697695,124.953214 0.705616589,121.154845 L3.61049072,120.107267 C4.6168957,122.871396 7.02732317,124.992203 9.90335458,125.639629 L9.22246032,128.640772 Z M143.628514,125.033245 L141.334488,122.970921 C142.784865,121.36826 143.58525,119.29465 143.58525,117.131775 L143.58525,114.402531 L146.675542,114.402531 L146.675542,117.131775 C146.675542,120.059043 145.59291,122.86524 143.628514,125.033245 Z M3.09029163,110.443074 L8.10018719e-13,110.443074 L8.10018719e-13,100.182758 L3.09029163,100.182758 L3.09029163,110.443074 Z M146.675542,104.142214 L143.58525,104.142214 L143.58525,93.8818973 L146.675542,93.8818973 L146.675542,104.142214 Z M3.09029163,89.9224411 L8.10018719e-13,89.9224411 L8.10018719e-13,79.6621245 L3.09029163,79.6621245 L3.09029163,89.9224411 Z M146.675542,83.6215806 L143.58525,83.6215806 L143.58525,73.361264 L146.675542,73.361264 L146.675542,83.6215806 Z M3.09029163,69.4018078 L8.10018719e-13,69.4018078 L8.10018719e-13,59.1414912 L3.09029163,59.1414912 L3.09029163,69.4018078 Z M146.675542,63.1009474 L143.58525,63.1009474 L143.58525,52.8406307 L146.675542,52.8406307 L146.675542,63.1009474 Z M3.09029163,48.8811745 L8.10018719e-13,48.8811745 L8.10018719e-13,38.6208579 L3.09029163,38.6208579 L3.09029163,48.8811745 Z M146.675542,42.5803141 L143.58525,42.5803141 L143.58525,32.3199974 L146.675542,32.3199974 L146.675542,42.5803141 Z M3.09029163,28.3605412 L8.10018719e-13,28.3605412 L8.10018719e-13,18.1002246 L3.09029163,18.1002246 L3.09029163,28.3605412 Z M146.675542,22.0596808 L143.58525,22.0596808 L143.58525,11.7993641 C143.58525,9.75756113 142.863152,7.77218986 141.551838,6.21056966 L143.924152,4.23648474 C145.69901,6.35216203 146.675542,9.03831293 146.675542,11.7993641 L146.675542,22.0596808 Z M3.7310121,8.51606281 L0.868371948,7.35767307 C2.39497601,3.61573559 5.68304631,0.938818973 9.66334193,0.198024111 L10.2309255,3.22379149 C7.33326204,3.76348414 4.84248699,5.79092271 3.7310121,8.51606281 Z M133.547983,3.07809499 L123.247011,3.07809499 L123.247011,1.42108547e-14 L133.547983,1.42108547e-14 L133.547983,3.07809499 Z M112.946039,3.07809499 L102.645067,3.07809499 L102.645067,1.42108547e-14 L112.946039,1.42108547e-14 L112.946039,3.07809499 Z M92.3440945,3.07809499 L82.0431224,3.07809499 L82.0431224,1.42108547e-14 L92.3440945,1.42108547e-14 L92.3440945,3.07809499 Z M71.7421503,3.07809499 L61.4411782,3.07809499 L61.4411782,1.42108547e-14 L71.7421503,1.42108547e-14 L71.7421503,3.07809499 Z M51.1402061,3.07809499 L40.839234,3.07809499 L40.839234,1.42108547e-14 L51.1402061,1.42108547e-14 L51.1402061,3.07809499 Z M30.5382619,3.07809499 L20.2372898,3.07809499 L20.2372898,1.42108547e-14 L30.5382619,1.42108547e-14 L30.5382619,3.07809499 Z" id="Shape" fill="#DAE7FF"></path>
                        </g>
                    </g>
                    <g id="paperplane" transform="translate(548.000000, 277.000000) scale(-1, 1) translate(-548.000000, -277.000000) translate(510.000000, 256.000000)">
                        <polygon id="Path" fill="#8184F4" points="75.7451765 16.4809787 56.8569412 25.9202553 0.189552941 0.748851064"></polygon>
                        <polygon id="Path" fill="#A9ABFB" points="53.7087529 41.652383 56.8569412 25.9202553 0.189552941 0.748851064"></polygon>
                        <polygon id="Path" fill="#5358FC" points="53.7087529 41.652383 47.4123765 29.0666809 31.6714353 25.9202553"></polygon>
                        <polygon id="Path" fill="#8184F4" points="47.4123765 29.0666809 31.6714353 35.3595319 0.189552941 0.748851064"></polygon>
                    </g>
                    <g id="man" transform="translate(63.000000, 267.000000)">
                        <path d="M121.567489,22.197433 C121.567489,22.197433 120.464004,20.7226054 120.280838,19.4314559 C120.096774,18.1412069 120.280838,12.4246743 118.074766,8.55302682 C115.868694,4.68137931 105.386034,5.35036398 105.379723,6.34078544 C105.364485,8.55302682 112.142523,7.09350575 113.474068,12.2409962 C113.828728,13.6122797 112.577991,14.9403448 111.985396,14.6387165 C110.40963,13.8364751 109.847562,9.89009579 108.514221,10.0287548 C107.504115,10.1331992 106.813651,16.5277203 109.433643,19.1559387 C111.281464,21.0089272 115.68463,24.8715709 116.880596,28.0985441 C118.076562,31.3255172 122.686238,24.2854215 121.567489,22.197433 Z" id="Path" fill="#FECCA9"></path>
                        <path d="M124.533162,21.807567 C124.202745,21.3285632 123.549094,21.2070115 123.06963,21.534751 L114.295621,27.5349042 C113.754204,27.9049617 113.611443,28.6441762 113.975979,29.1907088 C118.345026,35.7364943 136.076209,65.5508812 144.307004,67.2724138 L152.983145,53.9827586 C130.147557,30.1190038 130.307379,30.1739272 124.533162,21.807567 Z" id="Path" fill="#39B499"></path>
                        <path d="M139.034457,205.915021 L134.383503,215.386935 C134.383503,215.386935 134.540847,217.107567 139.566238,217.53795 C144.59163,217.968333 146.369417,215.386935 146.369417,215.386935 C146.369417,215.386935 148.464243,208.358209 148.403188,207.8666 C148.342133,207.374991 139.034457,205.915021 139.034457,205.915021 Z" id="Path" fill="#FECCA9"></path>
                        <path d="M135.137252,212.674623 C134.629056,212.116385 127.300404,216.638467 127.009494,216.747414 C124.452353,217.705421 117.624932,219.209962 117.628341,221.787759 C117.632115,224.489808 137.421221,223.753295 144.66346,223.394042 C146.132379,223.321111 147.739251,222.692491 147.758106,221.217663 L146.947467,214.059466 C146.951058,213.755137 143.864364,216.291493 141.30003,215.554406 C138.735696,214.81732 136.209311,213.851424 135.137252,212.674623 Z" id="Path" fill="#0A2A55"></path>
                        <path d="M180.86657,188.927375 L185.167379,192.965594 C185.167379,192.965594 187.736191,194.286456 190.692885,190.187912 C193.649579,186.089368 192.358438,183.232452 192.358438,183.232452 C192.358438,183.232452 187.180409,178.391092 186.727881,178.190307 C186.276251,177.990421 180.86657,188.927375 180.86657,188.927375 Z" id="Path" fill="#FECCA9"></path>
                        <path d="M184.866591,190.445421 C184.127643,190.594885 183.599694,191.244962 183.600591,192.000383 C183.604183,194.645709 183.605081,200.268602 183.548515,200.573831 C183.050196,203.265077 180.818983,209.909004 183.025055,211.233467 C185.336179,212.621858 194.900315,195.233659 198.323902,188.823831 C199.017957,187.523678 199.039844,184.992605 197.789108,184.217375 L192.266855,181.989023 C192.009166,181.828755 191.685034,181.818851 191.418366,181.962912 C191.1508,182.106973 190.980204,182.38249 190.971226,182.68682 C190.929026,184.078812 190.713536,186.152395 189.891085,187.676743 C188.976153,189.370364 186.425298,190.130287 184.866591,190.445421 Z" id="Path" fill="#0A2A55"></path>
                        <path d="M132.702902,154.503027 C130.907157,164.408142 179.155789,191.3977 179.593053,190.62157 L189.018212,176.559449 C189.36539,175.942987 178.132156,167.423049 155.318511,150.999636 L166.428666,110.658681 L146.571321,110.658681 C146.571321,110.658681 134.541745,144.362011 132.702902,154.503027 Z" id="Path" fill="#143E81"></path>
                        <path d="M173.590292,110.658681 C173.95842,123.011938 162.680781,157.912392 161.464164,169.896492 C160.414551,180.238293 153.459915,204.806533 151.563609,211.219962 C151.29694,212.121245 134.303032,206.88335 134.383218,206.20835 C135.250871,198.932772 138.180073,181.377851 139.237766,175.771165 C140.524417,168.948962 145.573329,129.482394 149.43418,115.481436 C153.295031,101.480478 173.590292,110.658681 173.590292,110.658681 Z" id="Path" fill="#3E65A3"></path>
                        <g id="柱状图">
                            <path d="M130.419735,109.295943 L24.1565605,125.354951 C19.2407365,126.097674 14.6534742,122.714461 13.9108346,117.798089 L0.102239021,26.4081264 C-0.640400573,21.4917545 2.7424353,16.9039809 7.65825933,16.1612585 L113.921434,0.102250417 C118.837258,-0.640471955 123.42452,2.74274098 124.167159,7.65911295 L137.975755,99.0490752 C138.718395,103.965447 135.335559,108.553221 130.419735,109.295943 Z" id="Path" fill="#40A9FF"></path>
                            <polygon id="Rectangle" fill="#BAE7FF" transform="translate(59.914707, 43.224087) rotate(-8.591959) translate(-59.914707, -43.224087) " points="55.5191665 37.3227722 64.3104422 37.3226274 64.3102478 49.125402 55.5189722 49.1255468"></polygon>
                            <polygon id="Rectangle" fill="#096DD9" transform="translate(63.881588, 69.482545) rotate(-8.591959) translate(-63.881588, -69.482545) " points="59.4862901 48.8277622 68.2775657 48.8276174 68.2768856 90.1373285 59.48561 90.1374733"></polygon>
                            <polygon id="Rectangle" fill="#BAE7FF" transform="translate(47.757521, 51.029553) rotate(-8.591959) translate(-47.757521, -51.029553) " points="43.3620771 39.2268505 52.1533527 39.2267058 52.1529641 62.832255 43.3616885 62.8323997"></polygon>
                            <polygon id="Rectangle" fill="#096DD9" transform="translate(51.724401, 77.288011) rotate(-8.591959) translate(-51.724401, -77.288011) " points="47.3290064 62.5346151 56.120282 62.5344704 56.1197962 92.0414069 47.3285206 92.0415517"></polygon>
                            <polygon id="Rectangle" fill="#BAE7FF" transform="translate(35.601224, 58.834794) rotate(-8.591959) translate(-35.601224, -58.834794) " points="31.2058778 41.1307044 39.9971534 41.1305596 39.9965704 76.5388834 31.2052948 76.5390282"></polygon>
                            <polygon id="Rectangle" fill="#096DD9" transform="translate(39.568015, 85.093252) rotate(-8.591959) translate(-39.568015, -85.093252) " points="35.1725227 76.2412436 43.9637983 76.2410988 43.9635068 93.9452607 35.1722312 93.9454055"></polygon>
                            <polygon id="Rectangle" fill="#BAE7FF" transform="translate(101.156796, 57.881023) rotate(-8.591959) translate(-101.156796, -57.881023) " points="96.7615952 31.3248526 105.552871 31.3247079 105.551996 84.4371936 96.7607208 84.4373384"></polygon>
                            <polygon id="Rectangle" fill="#BAE7FF" transform="translate(84.507972, 35.950969) rotate(-8.591959) translate(-84.507972, -35.950969) " points="80.1123735 33.5661783 88.9036491 33.5660336 88.9035706 38.3357589 80.112295 38.3359037"></polygon>
                            <polygon id="Rectangle" fill="#096DD9" transform="translate(88.474987, 62.210317) rotate(-8.591959) translate(-88.474987, -62.210317) " points="84.0797473 38.0390093 92.871023 38.0388645 92.8702271 86.3816249 84.0789514 86.3817696"></polygon>
                            <polygon id="Rectangle" fill="#BAE7FF" transform="translate(71.828824, 40.296423) rotate(-8.591959) translate(-71.828824, -40.296423) " points="67.433265 35.5096641 76.2245406 35.5095194 76.224383 45.0831811 67.4331073 45.0833258"></polygon>
                            <polygon id="Rectangle" fill="#096DD9" transform="translate(75.795682, 66.555326) rotate(-8.591959) translate(-75.795682, -66.555326) " points="71.4004025 44.7855362 80.1916781 44.7853914 80.1909613 88.3251157 71.3996856 88.3252605"></polygon>
                        </g>
                        <path d="M119.189923,104.586092 C119.189923,104.586092 112.481919,103.436303 109.399523,103.854981 C106.317128,104.273659 103.000387,104.928238 103.126987,105.706169 C103.253587,106.483199 110.160021,107.108966 110.160021,107.108966 C110.160021,107.108966 108.756647,109.460766 105.727226,109.608429 C102.698702,109.756092 100.751217,110.119847 100.626413,110.752816 C100.501609,111.385785 109.360017,114.331839 112.538485,112.965057 C115.716055,111.597375 122.218447,109.886648 122.218447,109.886648 L119.189923,104.586092 Z" id="Path" fill="#FECCA9"></path>
                        <path d="M147.074247,51.3725479 C147.074247,51.3725479 146.463694,48.794751 145.995902,47.0074904 C145.045953,43.378046 142.47714,47.5999425 139.920898,46.101705 C139.031106,45.5803831 138.031774,41.8771073 137.40057,41.5070498 C136.744226,41.1225862 135.324689,42.7990996 135.000557,40.6084674 C134.644102,38.1972414 134.396289,29.832682 136.486536,26.476954 C138.745583,22.8493103 148.646421,19.9554789 151.501655,24.2593103 C154.356889,28.5631418 156.370817,47.8205364 156.370817,47.8205364 L147.074247,51.3725479 Z" id="Path" fill="#FECCA9"></path>
                        <path d="M147.683004,34.436341 C146.248852,35.7350657 147.537549,29.2024138 145.50297,28.5829502 C143.468391,27.9625862 133.145553,33.5674713 131.367766,26.8136973 C130.808918,24.6906481 127.386963,17.5775041 129.609595,17.2536559 C136.597866,16.2354311 137.676696,14.632164 140.078869,14 C143.582367,13.0780077 157.296523,11.1803448 160.655464,24.0180077 C164.014404,36.8556705 155.917391,40.8530783 154.450268,39.660364 C152.983145,38.4676496 156.370817,26.568923 147.683004,34.436341 Z" id="Path" fill="#0A2A55"></path>
                        <path d="M156.421098,44.8438697 C155.420868,44.0920498 146.753998,48.6043073 146.386768,49.6199395 C146.018641,50.6346713 141.40252,60.4115891 142.312003,72.9310182 C144.027837,72.439409 159.158092,49.315638 158.912973,48.6403507 C158.667854,47.9641629 157.157353,45.396705 156.421098,44.8438697 Z" id="Path" fill="#71E5CB"></path>
                        <path d="M139.237766,115.919315 C152.085386,115.162266 161.149019,114.296746 166.428666,113.322755 C171.708313,112.348764 177.136889,111.012513 182.714391,109.314004 C176.585515,95.4240932 173.092193,85.6519349 172.234426,79.9975287 C169.844289,58.6098276 161.202268,48.837069 158.260838,48.2842337 C155.319409,47.7313985 148.465524,55.5479565 148.465524,55.5479565 C145.843487,61.0938719 142.402544,65.7245382 142.177476,70.4253389 C141.861037,77.034546 144.655379,86.6380584 144.655379,92.1743103 C144.655379,94.7431034 144.100494,97.3587165 143.377706,99.9941379 C142.763562,102.227088 142.03,104.474444 141.408672,106.716398 C140.698156,109.289693 139.974521,112.357332 139.237766,115.919315 Z" id="Path" fill="#55CEB3"></path>
                        <path d="M141.406877,106.717299 C148.185813,105.059693 162.435047,100.93864 165.491404,94.9943103 C169.536319,87.1285632 159.179362,68.7517433 159.179362,68.7517433 C162.304855,83.3172414 160.83414,99.3584674 149.250689,100.107586 C147.492655,100.221935 145.500277,100.168812 143.375911,99.9950383 C142.761766,102.227088 142.028204,104.475345 141.406877,106.717299 Z" id="Path" fill="#39B499"></path>
                        <path d="M120.823281,112.264559 C136.509624,106.915683 147.623146,102.367848 154.163847,98.6210536 C163.974898,93.0008621 159.179362,68.7517433 159.179362,68.7517433 L143.466596,71.5402299 L144.145387,84.460728 C144.145387,84.460728 119.264447,99.4494061 118.74817,100.299368 C117.467206,102.400262 118.158909,106.388659 120.823281,112.264559 Z" id="Path" fill="#55CEB3"></path>
                    </g>
                    <g id="plant_3_" transform="translate(412.000000, 373.000000)">
                        <path d="M57.9994058,63 L0.00059419707,63 C0.00059419707,63 -0.51699464,95 29,95 C58.5169946,95 57.9994058,63 57.9994058,63 Z" id="Path" fill="#FBDFCB"></path>
                        <ellipse id="Oval" fill="#E8ECFC" cx="29" cy="62.5" rx="29" ry="9.5"></ellipse>
                        <path d="M28.8913409,66 C28.8913409,66 6.54821455,30.2955959 14.8485109,0 C14.8485109,0 30.4437459,27.7925734 28.8913409,66 Z" id="Path" fill="#55CEB3"></path>
                        <path d="M29,66 C29,66 30.9533328,23.8036068 55,3 C54.999034,2.99904042 52.003344,34.8569623 29,66 Z" id="Path" fill="#55CEB3"></path>
                        <path d="M29.6324647,71 C29.6324647,71 20.3090727,30.3155253 36.7544112,4 C36.7544112,4.00094995 42.405979,35.1289239 29.6324647,71 Z" id="Path" fill="#39B499"></path>
                    </g>
                </g>
            </g>
        </g>
    </g>
</svg>